<?xml version="1.0" encoding="iso-8859-1"?>
<!-- Uploaded to: SVG Repo, www.svgrepo.com, Generator: SVG Repo Mixer Tools -->
<svg height="800px" width="800px" version="1.1" id="Capa_1" xmlns="http://www.w3.org/2000/svg" xmlns:xlink="http://www.w3.org/1999/xlink" 
	 viewBox="0 0 512.001 512.001" xml:space="preserve">
<g>
	<path style="fill:#5B699C;" d="M100.541,473.148c-21.492-21.492-33.329-50.069-33.329-80.463c0-30.398,11.836-58.974,33.333-80.466
		c8.887-8.887,23.297-8.885,32.184,0c0.002,0.002,0,0,0,0c8.888,8.888,8.888,23.3,0,32.187
		c-12.895,12.895-19.999,30.042-19.999,48.277c0,18.237,7.104,35.382,19.999,48.279c26.622,26.62,69.938,26.619,96.558-0.002
		l96.553-96.558c26.626-26.619,69.942-26.619,96.563,0c26.62,26.622,26.62,69.938,0,96.56l-64.375,64.372
		c-8.887,8.887-23.297,8.887-32.185-0.002l0,0c-8.887-8.887-8.887-23.297,0-32.187l64.374-64.369
		c8.873-8.874,8.873-23.314-0.002-32.189c-8.871-8.873-23.314-8.873-32.19,0.002l-96.552,96.556
		C217.102,517.514,144.912,517.516,100.541,473.148z"/>
	<path style="fill:#5B699C;" d="M354.983,190.61c-7.726-9.918-22.015-11.709-31.938-3.992l-2.246,1.746l-64.221-64.219l1.746-2.244
		c7.717-9.921,5.92-24.224-3.992-31.937c-9.924-7.718-24.223-5.931-31.937,3.992L71.848,287.517
		c-7.046,9.06-6.247,21.95,1.871,30.066l53.642,53.642c8.116,8.116,21.005,8.918,30.066,1.871l193.562-150.549
		C360.912,214.832,362.699,200.533,354.983,190.61z"/>
</g>
<path style="fill:#2D4175;" d="M354.983,190.61c-7.726-9.918-22.015-11.709-31.938-3.992l-2.246,1.746l-32.111-32.108
	L100.542,344.405l26.82,26.82c8.116,8.116,21.005,8.918,30.066,1.871L350.99,222.547
	C360.912,214.832,362.699,200.533,354.983,190.61z"/>
<path style="fill:#9E8CEC;" d="M411.67,33.276c-44.371-44.368-116.563-44.368-160.932,0c-44.363,44.369-44.363,116.56,0,160.927l0,0
	c44.369,44.368,116.563,44.368,160.933,0.002C456.039,149.837,456.038,77.645,411.67,33.276z"/>
<path style="fill:#6A56CF;" d="M411.672,194.205c44.368-44.368,44.366-116.56,0-160.929l-160.93,160.93
	C295.11,238.572,367.304,238.571,411.672,194.205z"/>
<path style="fill:#5B699C;" d="M411.67,162.018L282.924,33.274c-8.887-8.888-23.297-8.888-32.185,0
	c-8.887,8.887-8.888,23.297,0,32.185l128.745,128.742c8.888,8.888,23.297,8.888,32.187,0.002
	C420.558,185.316,420.558,170.907,411.67,162.018z"/>
<g>
	<path style="fill:#2D4175;" d="M411.67,162.018l-64.372-64.371l-32.185,32.185l64.372,64.371
		c8.888,8.888,23.297,8.888,32.187,0.002C420.558,185.316,420.558,170.907,411.67,162.018z"/>
	<path style="fill:#2D4175;" d="M422.399,344.404c-26.62-26.619-69.936-26.619-96.563,0l-96.553,96.558
		c-14.264,14.265-33.323,20.877-52.037,19.853l-37.78,37.78c40.829,15.946,89.076,7.482,122.004-25.447l96.552-96.556
		c8.876-8.874,23.319-8.874,32.19-0.002c8.874,8.874,8.874,23.314,0.002,32.189l-64.374,64.369c-8.887,8.888-8.887,23.299,0,32.187
		c8.887,8.887,23.297,8.888,32.185,0.002l64.374-64.372C449.019,414.341,449.019,371.025,422.399,344.404z"/>
</g>
</svg>